<svg xmlns="http://www.w3.org/2000/svg" viewBox="0 0 1000 600" id="onlinepayment"><g data-name="online payment" fill="#34a853" class="color000000 svgShape"><polygon fill="#ea4335" points="704.312 199.116 523.052 199.116 432.422 356.092 523.052 513.067 704.312 513.067 794.942 356.092 704.312 199.116" class="colord9ebff svgShape"></polygon><polygon fill="#ea4335" points="425.44 59.78 308.654 59.78 250.262 160.919 308.654 262.058 425.44 262.058 483.832 160.919 425.44 59.78" class="colord9ebff svgShape"></polygon><polygon fill="#ea4335" points="307.454 287.23 198.846 287.23 144.542 381.287 198.846 475.345 307.454 475.345 361.759 381.287 307.454 287.23" class="colord9ebff svgShape"></polygon><path fill="#fbbc05" d="M693.28027,463.06641h-233.498a1.50007,1.50007,0,0,1-1.5-1.5V111.12451a1.50007,1.50007,0,0,1,1.5-1.5H663.07715a1.50008,1.50008,0,0,1,1.5,1.5v66.7124a1.5,1.5,0,0,1-3,0v-65.2124H461.28223v347.4419h231.998a1.5,1.5,0,0,1,0,3Z" class="colora9c0ff svgShape"></path><path fill="#4d75b8" d="M369.938,408.69629v96.12012h77.75976V408.69629Zm50.72,40.2102a12.66,12.66,0,0,1-25.32007,0V436.24634H420.658Z" class="color4d76b8 svgShape"></path><path fill="#4467a0" d="M369.938,450.64746h25.53345a12.70961,12.70961,0,0,1-.13355-1.741V436.24634H420.658v12.66015a12.70961,12.70961,0,0,1-.13355,1.741h27.17334V408.69629H369.938Z" class="color4469a0 svgShape"></path><rect width="357.964" height="228.036" x="229.836" y="208.211" fill="#4d75b8" rx="16" class="color4d76b8 svgShape"></rect><rect width="326.44" height="197.985" x="245.598" y="223.237" fill="#ffffff" rx="7" class="colorffffff svgShape"></rect><path fill="#fbbc05" d="M566.30905,223.23685H251.32683a5.72876,5.72876,0,0,0-5.72873,5.72874v9.59156H572.03778v-9.59156A5.72876,5.72876,0,0,0,566.30905,223.23685Z" class="colora9c0ff svgShape"></path><path fill="#4467a0" d="M750.29156,456.42506H627.93915v-8.75364a2,2,0,0,1,2-2H748.29156a2,2,0,0,1,2,2Z" class="color4469a0 svgShape"></path><path fill="#4d75b8" d="M627.93915 456.42506H750.29156a0 0 0 010 0v46.39135a2 2 0 01-2 2H629.93915a2 2 0 01-2-2V456.42506A0 0 0 01627.93915 456.42506zM649.17161 439.19167H729.0591a2 2 0 012 2v4.47975a0 0 0 010 0H647.17161a0 0 0 010 0v-4.47975A2 2 0 01649.17161 439.19167z" class="color4d76b8 svgShape"></path><path fill="#92b5ef" d="M653.894,368.05225h70.44267a3,3,0,0,1,3,3v68.13942a0,0,0,0,1,0,0H650.894a0,0,0,0,1,0,0V371.05225A3,3,0,0,1,653.894,368.05225Z" class="color92b1ef svgShape"></path><circle cx="736.022" cy="370.327" r="22.955" fill="#ffffff" class="colorffffff svgShape"></circle><path fill="#4d75b8" d="M731.89062,384,718.543,371.80371a1.99976,1.99976,0,1,1,2.69726-2.95312l10.64258,9.72461,18.917-17.373a1.99988,1.99988,0,0,1,2.70508,2.94629Z" class="color4d76b8 svgShape"></path><rect width="2" height="26.884" x="672.918" y="331.242" fill="#4d75b8" class="color4d76b8 svgShape"></rect><rect width="2" height="40.671" x="688.115" y="317.455" fill="#4d75b8" class="color4d76b8 svgShape"></rect><rect width="2" height="23.438" x="703.313" y="334.688" fill="#4d75b8" class="color4d76b8 svgShape"></rect><rect width="13.649" height="32.33" x="667.231" y="406.862" fill="#fbbc05" class="colora9c0ff svgShape"></rect><rect width="120.387" height="81.03" x="511.844" y="307.152" fill="#92b5ef" rx="2" class="color92b1ef svgShape"></rect><rect width="120.387" height="16.978" x="511.844" y="319.435" fill="#4d75b8" class="color4d76b8 svgShape"></rect><rect width="77.76" height="52.92" x="285.16" y="266.515" fill="#92b5ef" rx="2" class="color92b1ef svgShape"></rect><rect width="79.199" height="3" x="387.942" y="272.942" fill="#4568a3" class="color456ba3 svgShape"></rect><rect width="119.199" height="3" x="387.942" y="291.974" fill="#4568a3" class="color456ba3 svgShape"></rect><rect width="99.199" height="3" x="387.942" y="311.005" fill="#4568a3" class="color456ba3 svgShape"></rect><rect width="54.72" height="20.16" x="285.16" y="364.422" fill="#92b5ef" rx="2" class="color92b1ef svgShape"></rect><rect width="54.72" height="20.16" x="358.6" y="364.422" fill="#92b5ef" rx="2" class="color92b1ef svgShape"></rect><rect width="54.72" height="20.16" x="432.422" y="364.422" fill="#92b5ef" rx="2" class="color92b1ef svgShape"></rect><g opacity=".61" fill="#34a853" class="color000000 svgShape"><circle cx="595.48" cy="351.102" r="8.1" fill="#fbbc05" class="colora9c0ff svgShape"></circle></g><g opacity=".61" fill="#34a853" class="color000000 svgShape"><circle cx="605.74" cy="351.102" r="8.1" fill="#fbbc05" class="colora9c0ff svgShape"></circle></g><rect width="52.56" height="16.74" x="524.92" y="359.202" fill="#fbbc05" rx="2" class="colora9c0ff svgShape"></rect><g opacity=".28" fill="#34a853" class="color000000 svgShape"><rect width="149.274" height="115.385" x="189.425" y="138.357" fill="#4285f4" rx="2" class="color6299e8 svgShape"></rect></g><rect width="149.274" height="115.385" x="169.778" y="120.691" fill="#ffffff" rx="2" class="colorffffff svgShape"></rect><path fill="#4d75b8" d="M317.05176,237.57617H171.77734a3.50425,3.50425,0,0,1-3.5-3.5V122.69141a3.50425,3.50425,0,0,1,3.5-3.5H317.05176a3.50424,3.50424,0,0,1,3.5,3.5V234.07617A3.50424,3.50424,0,0,1,317.05176,237.57617ZM171.77734,122.19141a.50065.50065,0,0,0-.5.5V234.07617a.50065.50065,0,0,0,.5.5H317.05176a.50065.50065,0,0,0,.5-.5V122.69141a.50065.50065,0,0,0-.5-.5Z" class="color4d76b8 svgShape"></path><rect width="74.88" height="50.4" x="212.822" y="138.357" fill="#fbbc05" rx="2" class="colora9c0ff svgShape"></rect><rect width="74.88" height="10.56" x="212.822" y="145.997" fill="#ea4335" class="colord9ebff svgShape"></rect><path fill="#4d75b8" d="M275.82155,163.237a2.178,2.178,0,0,0-2-2.32h-61v25.52a2.17783,2.17783,0,0,0,2,2.32h68.07568Z" class="color4d76b8 svgShape"></path><rect width="74.88" height="50.4" x="195.542" y="167.817" fill="#92b5ef" rx="2" class="color92b1ef svgShape"></rect><rect width="62.64" height="7.92" x="201.422" y="203.337" fill="#4d75b8" class="color4d76b8 svgShape"></rect><g opacity=".61" fill="#34a853" class="color000000 svgShape"><circle cx="207.782" cy="183.597" r="5.76" fill="#fbbc05" class="colora9c0ff svgShape"></circle></g><g opacity=".61" fill="#34a853" class="color000000 svgShape"><circle cx="214.982" cy="183.597" r="5.76" fill="#fbbc05" class="colora9c0ff svgShape"></circle></g><path fill="#4d75b8" d="M757.78417,269.24913H620.91531a1.27292,1.27292,0,0,1-1.2729-1.2659l-.46353-83.99461,119.29391,11.02353h19.31138a1.27292,1.27292,0,0,1,1.27292,1.27292V267.9762A1.27293,1.27293,0,0,1,757.78417,269.24913Z" class="color4d76b8 svgShape"></path><path fill="#4467a0" d="M738.47556,174.23474v20.78H630.09568c-.24024,0-.49024-.01-.73-.02-13.92017-.71-13.44019-21.75.5-22.03H737.19553A1.27406,1.27406,0,0,1,738.47556,174.23474Z" class="color4469a0 svgShape"></path><rect width="123.973" height="12.373" x="626.378" y="206.468" fill="#92b5ef" rx="2" class="color92b1ef svgShape"></rect><rect width="139.569" height="22.454" x="619.496" y="230.298" fill="#92b5ef" class="color92b1ef svgShape"></rect><path fill="#779bd8" d="M687.37546,119.78479v75.23H630.49558v-75.23a2.99578,2.99578,0,0,1,3-3h50.87988A2.99578,2.99578,0,0,1,687.37546,119.78479Z" class="color779dd8 svgShape"></path><path fill="#fbbc05" d="M679.21245,127.97473v67.04h-40.8v-67.04a2.99578,2.99578,0,0,1,3-3h34.8A2.99594,2.99594,0,0,1,679.21245,127.97473Z" class="colora9c0ff svgShape"></path><circle cx="657.852" cy="148.964" r="10.2" fill="#779bd8" class="color779dd8 svgShape"></circle><path fill="#92b5ef" d="M733.52561,195.01477H674.43552l-6.18994-22.05-9.2-32.73a2.9956,2.9956,0,0,1,2.07983-3.7l48.98-13.77a2.99578,2.99578,0,0,1,3.7002,2.07983l13.52,48.12012Z" class="color92b1ef svgShape"></path><path fill="#fbbc05" d="M725.05564,195.01477H682.6655l-6.18994-22.05-7.59009-26.99a2.99612,2.99612,0,0,1,2.08008-3.7002l33.5-9.41992a2.99555,2.99555,0,0,1,3.69995,2.08008l10.68994,38.03Z" class="colora9c0ff svgShape"></path><circle cx="693.28" cy="160.919" r="10.2" fill="#92b5ef" class="color92b1ef svgShape"></circle><path fill="#fbbc05" d="M524.91992,193.019a1.50007,1.50007,0,0,1-1.5-1.5V89.19385H251.76172v21.61133a1.5,1.5,0,0,1-3,0V87.69385a1.50007,1.50007,0,0,1,1.5-1.5h274.6582a1.50007,1.50007,0,0,1,1.5,1.5V191.519A1.50007,1.50007,0,0,1,524.91992,193.019Z" class="colora9c0ff svgShape"></path><path fill="#4d75b8" d="M165.51607,363.50151V332.05367a11.1169,11.1169,0,0,0-11.11689-11.1169h0a11.1169,11.1169,0,0,0-11.11689,11.1169v31.44784Z" class="color4d76b8 svgShape"></path><path fill="#92b5ef" d="M260.7609,320.93677h0a11.1169,11.1169,0,0,1,11.1169,11.1169V493.69951a11.1169,11.1169,0,0,0,11.11689,11.1169h0a11.1169,11.1169,0,0,0,11.11689-11.1169H187.74988a11.1169,11.1169,0,0,1-11.11689,11.1169h0a11.1169,11.1169,0,0,1-11.1169-11.1169V332.05367a11.1169,11.1169,0,0,0-11.11689-11.1169H260.7609Z" class="color92b1ef svgShape"></path><path fill="#fbbc05" d="M282.99471,504.81641h0a11.1169,11.1169,0,0,0,11.11689-11.1169H187.74988a11.1169,11.1169,0,0,1-11.11689,11.1169H282.99471Z" class="colora9c0ff svgShape"></path><rect width="58.739" height="3" x="176.633" y="343.424" fill="#4568a3" class="color456ba3 svgShape"></rect><rect width="58.739" height="3" x="176.633" y="357.702" fill="#4568a3" class="color456ba3 svgShape"></rect><rect width="58.739" height="3" x="176.633" y="371.979" fill="#4568a3" class="color456ba3 svgShape"></rect><rect width="58.739" height="3" x="176.633" y="386.257" fill="#4568a3" class="color456ba3 svgShape"></rect><rect width="58.739" height="3" x="176.633" y="400.534" fill="#4568a3" class="color456ba3 svgShape"></rect><rect width="58.739" height="3" x="176.633" y="414.812" fill="#4568a3" class="color456ba3 svgShape"></rect><rect width="58.739" height="3" x="176.633" y="429.089" fill="#4568a3" class="color456ba3 svgShape"></rect><rect width="58.739" height="3" x="176.633" y="443.366" fill="#4568a3" class="color456ba3 svgShape"></rect><rect width="16.725" height="3" x="245.598" y="343.424" fill="#4568a3" class="color456ba3 svgShape"></rect><rect width="16.725" height="3" x="245.598" y="357.702" fill="#4568a3" class="color456ba3 svgShape"></rect><rect width="16.725" height="3" x="245.598" y="371.979" fill="#4568a3" class="color456ba3 svgShape"></rect><rect width="16.725" height="3" x="245.598" y="386.257" fill="#4568a3" class="color456ba3 svgShape"></rect><rect width="16.725" height="3" x="245.598" y="400.534" fill="#4568a3" class="color456ba3 svgShape"></rect><rect width="16.725" height="3" x="245.598" y="414.812" fill="#4568a3" class="color456ba3 svgShape"></rect><rect width="16.725" height="3" x="245.598" y="429.089" fill="#4568a3" class="color456ba3 svgShape"></rect><rect width="16.725" height="3" x="245.598" y="443.366" fill="#4568a3" class="color456ba3 svgShape"></rect><path fill="#4568a3" d="M185.63525,484.82083q2.031-3.91182,4.1128-7.79388l.51855-.97171a4.31386,4.31386,0,0,1,.71582-1.00434,3.70111,3.70111,0,0,1,2.29541-1.05322,3.77685,3.77685,0,0,1,2.48926.658,3.72215,3.72215,0,0,1,.93994.93875c.27539.39627.40479.6665.605.997l1.0957,1.90955a2.32788,2.32788,0,0,0,1.21094,1.0477,2.26393,2.26393,0,0,0,2.73047-.91648,2.69982,2.69982,0,0,0,.1709-.34466l.19385-.49634.39746-1.02649.80322-2.04941,1.606-4.09885.40137-1.02471.10058-.25617.1582-.33267a3.18012,3.18012,0,0,1,.38575-.64508,4.26869,4.26869,0,0,1,2.498-1.67133,4.57232,4.57232,0,0,1,2.98731.31311,4.43706,4.43706,0,0,1,2.10888,2.20133l.14893.34594.09277.259.186.51788.37158,1.03574.74365,2.0715,1.48682,4.143.7334,2.03937a1.64985,1.64985,0,0,0,.75146.8877,1.75448,1.75448,0,0,0,2.16553-.37229,1.897,1.897,0,0,0,.29541-.52029c.10693-.27509.23486-.67386.35156-1.0047l.71533-2.08121,1.43067-4.16244,2.92627-8.3024.73193-2.07544.36572-1.03772c.09717-.23554.20606-.47852.3169-.71286.13281-.22888.2876-.45108.43945-.67a4.65783,4.65783,0,0,1,5.78125-1.16608,4.477,4.477,0,0,1,2.06592,2.35492c.07617.22406.18506.53293.21777.69125l.13038.53461.26025,1.06918,1.0415,4.27674q1.054,4.27359,2.04688,8.5628l.5039,2.14267a2.11033,2.11033,0,0,0,.7334,1.2052,2.25425,2.25425,0,0,0,2.75537-.08188,1.10309,1.10309,0,0,0,.25733-.26495,2.19042,2.19042,0,0,0,.36474-.67328l.06739-.1904.09765-.31329a3.99828,3.99828,0,0,1,6.7041-1.65424c.14063.177.28858.3501.41309.53516.10645.19058.22314.39416.313.57626l.44775,1.00589.89551,2.01181a2.71987,2.71987,0,0,0,2.98291,1.75214,2.91144,2.91144,0,0,0,1.689-.9346l1.55517-1.55991,3.13721-3.09546-2.80274,3.40131L258.6582,481.436a3.58678,3.58678,0,0,1-4.45263,1.0459,3.86081,3.86081,0,0,1-1.73926-1.788l-1.03467-1.94373-.51758-.97186-.24023-.37445c-.08936-.1116-.19238-.20868-.28223-.31632a2.43527,2.43527,0,0,0-3.03906-.169,2.2122,2.2122,0,0,0-.83887,1.28811l-.147.55167a2.68974,2.68974,0,0,1-.24365.66123,3.97038,3.97038,0,0,1-.83545,1.17352,4.26869,4.26869,0,0,1-5.3667.39078,4.33019,4.33019,0,0,1-1.6416-2.39655l-.58887-2.12088q-1.18579-4.23981-2.3252-8.49142l-1.14453-4.25037-.28613-1.06262-.14307-.53128c-.0498-.1995-.08691-.22928-.12255-.3544a1.64324,1.64324,0,0,0-.791-.864,1.82948,1.82948,0,0,0-2.189.44193c-.04736.08877-.106.16647-.16015.25152a3.11546,3.11546,0,0,1-.12744.29386l-.35791,1.04062-.71534,2.08123-2.86279,8.32438-1.46387,4.15091-.73193,2.07547c-.12988.3598-.22558.66073-.38379,1.06887a4.807,4.807,0,0,1-.80371,1.37177,4.66093,4.66093,0,0,1-5.83105,1.00647,4.55085,4.55085,0,0,1-2.02246-2.40436c-.27393-.75156-.4751-1.40759-.71534-2.11627l-2.75683-8.25311a1.83,1.83,0,0,0-.83643-.93961,2.13385,2.13385,0,0,0-1.30371-.17441,1.79737,1.79737,0,0,0-1.10986.67151,1.10681,1.10681,0,0,0-.18994.28858l-.08936.15841-.11084.252-.44189,1.008-1.76709,4.032-.88379,2.016-.4458,1.00619-.23535.51651a4.64587,4.64587,0,0,1-.354.6203,4.10469,4.10469,0,0,1-5.0293,1.43021,4.00289,4.00289,0,0,1-1.95605-1.87781l-.98242-1.97025a3.99591,3.99591,0,0,0-1.03174-1.57293,2.54226,2.54226,0,0,0-1.646-.55786,2.61914,2.61914,0,0,0-1.67334.62823,3.54911,3.54911,0,0,0-.60986.74173l-.59912.92429Q188.07714,481.15081,185.63525,484.82083Z" class="color456ba3 svgShape"></path><rect width="13.816" height="13.816" x="306.774" y="80.786" fill="#fbbc05" transform="rotate(45 313.682 87.694)" class="colora9c0ff svgShape"></rect><rect width="13.816" height="13.816" x="327.894" y="80.786" fill="#fbbc05" transform="rotate(45 334.802 87.694)" class="colora9c0ff svgShape"></rect><rect width="13.816" height="13.816" x="349.014" y="80.786" fill="#fbbc05" transform="rotate(45 355.922 87.694)" class="colora9c0ff svgShape"></rect><rect width="13.816" height="13.816" x="555.494" y="104.216" fill="#fbbc05" transform="rotate(45 562.402 111.124)" class="colora9c0ff svgShape"></rect><rect width="13.816" height="13.816" x="576.614" y="104.216" fill="#fbbc05" transform="rotate(45 583.522 111.124)" class="colora9c0ff svgShape"></rect><rect width="13.816" height="13.816" x="597.734" y="104.216" fill="#fbbc05" transform="rotate(45 604.642 111.124)" class="colora9c0ff svgShape"></rect><rect width="11.325" height="11.325" x="532.835" y="455.904" fill="#fbbc05" transform="rotate(45 538.497 461.566)" class="colora9c0ff svgShape"></rect><rect width="11.325" height="11.325" x="550.147" y="455.904" fill="#fbbc05" transform="rotate(45 555.81 461.566)" class="colora9c0ff svgShape"></rect><rect width="11.325" height="11.325" x="567.459" y="455.904" fill="#fbbc05" transform="rotate(45 573.122 461.566)" class="colora9c0ff svgShape"></rect><rect width="11.089" height="11.089" x="454.237" y="141.061" fill="#fbbc05" transform="rotate(135 459.782 146.605)" class="colora9c0ff svgShape"></rect><rect width="11.089" height="11.089" x="454.237" y="158.012" fill="#fbbc05" transform="rotate(135 459.782 163.557)" class="colora9c0ff svgShape"></rect><rect width="11.089" height="11.089" x="454.237" y="174.964" fill="#fbbc05" transform="rotate(135 459.782 180.509)" class="colora9c0ff svgShape"></rect><rect width="677.52" height="9" x="126.04" y="504.816" fill="#4568a3" class="color456ba3 svgShape"></rect><rect width="77.76" height="16.464" x="369.938" y="480.621" fill="#4568a3" class="color456ba3 svgShape"></rect><path fill="#4d75b8" d="M465.69792,505.31646h-113.76v-11.464a5,5,0,0,1,5-5h103.76a5,5,0,0,1,5,5Z" class="color4d76b8 svgShape"></path></g></svg>